<svg xmlns="http://www.w3.org/2000/svg" viewBox="0 0 100 100">
  <rect width="100" height="100" fill="#FFFFFF"/>
  <!-- Top-left -->
  <g transform="translate(0,0) scale(0.105)">
    <path fill="#2E4A7A" d="M270.62,258.43c-87.26-35.51-180.84-23.38-256.47,31.74-26.6-42.51-11.37-98.19,34.39-118.19,17.41-7.61,34.1-5.3,54.68-3.26-26.97-24.98-56.61-41.49-76.71-70.46C8.42,72.17,1.02,33.62,17.97,6.51,50.37-7.7,91.75,2.76,119.57,24.25c26.64,20.58,43.74,46.5,66.24,72.84-6.64-33.15,5.4-61.62,32.93-77.68,30.95-17.23,68.05-14.94,99.11,3.66-60.56,62.41-80.29,150.3-47.23,235.36Z"/>
    <path fill="#2E4A7A" d="M127.98,317.72c-63.69,23.6-58.68,69.75-82.38,97.82-7.91,9.37-25.06,6.56-33.49.87-28.59-19.26-1.54-65.37,29.25-88.9,78.39-59.91,175.43-58.17,259.79-10.94-62.2-9.9-112.9-16.09-173.16,1.15Z"/>
    <path fill="#2E4A7A" d="M326.45,179.13c-.97,13.83-3.57,27.34-2.73,39.78l4.66,68.98c-43.22-79-38.65-175.11,26.93-237.87,17.29-16.55,35.34-30.84,59.9-33.06,10.87-.98,22.83.65,29.1,8.6,5.81,7.38,11.69,20.71,3.49,30.1-24.82,28.44-105.07,3.88-121.35,123.47Z"/>
  </g>
  <!-- Top-right -->
  <g transform="translate(100,0) scale(-0.105,0.105)">
    <path fill="#2E4A7A" d="M270.62,258.43c-87.26-35.51-180.84-23.38-256.47,31.74-26.6-42.51-11.37-98.19,34.39-118.19,17.41-7.61,34.1-5.3,54.68-3.26-26.97-24.98-56.61-41.49-76.71-70.46C8.42,72.17,1.02,33.62,17.97,6.51,50.37-7.7,91.75,2.76,119.57,24.25c26.64,20.58,43.74,46.5,66.24,72.84-6.64-33.15,5.4-61.62,32.93-77.68,30.95-17.23,68.05-14.94,99.11,3.66-60.56,62.41-80.29,150.3-47.23,235.36Z"/>
    <path fill="#2E4A7A" d="M127.98,317.72c-63.69,23.6-58.68,69.75-82.38,97.82-7.91,9.37-25.06,6.56-33.49.87-28.59-19.26-1.54-65.37,29.25-88.9,78.39-59.91,175.43-58.17,259.79-10.94-62.2-9.9-112.9-16.09-173.16,1.15Z"/>
    <path fill="#2E4A7A" d="M326.45,179.13c-.97,13.83-3.57,27.34-2.73,39.78l4.66,68.98c-43.22-79-38.65-175.11,26.93-237.87,17.29-16.55,35.34-30.84,59.9-33.06,10.87-.98,22.83.65,29.1,8.6,5.81,7.38,11.69,20.71,3.49,30.1-24.82,28.44-105.07,3.88-121.35,123.47Z"/>
  </g>
  <!-- Bottom-left -->
  <g transform="translate(0,100) scale(0.105,-0.105)">
    <path fill="#2E4A7A" d="M270.62,258.43c-87.26-35.51-180.84-23.38-256.47,31.74-26.6-42.51-11.37-98.19,34.39-118.19,17.41-7.61,34.1-5.3,54.68-3.26-26.97-24.98-56.61-41.49-76.71-70.46C8.42,72.17,1.02,33.62,17.97,6.51,50.37-7.7,91.75,2.76,119.57,24.25c26.64,20.58,43.74,46.5,66.24,72.84-6.64-33.15,5.4-61.62,32.93-77.68,30.95-17.23,68.05-14.94,99.11,3.66-60.56,62.41-80.29,150.3-47.23,235.36Z"/>
    <path fill="#2E4A7A" d="M127.98,317.72c-63.69,23.6-58.68,69.75-82.38,97.82-7.91,9.37-25.06,6.56-33.49.87-28.59-19.26-1.54-65.37,29.25-88.9,78.39-59.91,175.43-58.17,259.79-10.94-62.2-9.9-112.9-16.09-173.16,1.15Z"/>
    <path fill="#2E4A7A" d="M326.45,179.13c-.97,13.83-3.57,27.34-2.73,39.78l4.66,68.98c-43.22-79-38.65-175.11,26.93-237.87,17.29-16.55,35.34-30.84,59.9-33.06,10.87-.98,22.83.65,29.1,8.6,5.81,7.38,11.69,20.71,3.49,30.1-24.82,28.44-105.07,3.88-121.35,123.47Z"/>
  </g>
  <!-- Bottom-right -->
  <g transform="translate(100,100) scale(-0.105,-0.105)">
    <path fill="#2E4A7A" d="M270.62,258.43c-87.26-35.51-180.84-23.38-256.47,31.74-26.6-42.51-11.37-98.19,34.39-118.19,17.41-7.61,34.1-5.3,54.68-3.26-26.97-24.98-56.61-41.49-76.71-70.46C8.42,72.17,1.02,33.62,17.97,6.51,50.37-7.7,91.75,2.76,119.57,24.25c26.64,20.58,43.74,46.5,66.24,72.84-6.64-33.15,5.4-61.62,32.93-77.68,30.95-17.23,68.05-14.94,99.11,3.66-60.56,62.41-80.29,150.3-47.23,235.36Z"/>
    <path fill="#2E4A7A" d="M127.98,317.72c-63.69,23.6-58.68,69.75-82.38,97.82-7.91,9.37-25.06,6.56-33.49.87-28.59-19.26-1.54-65.37,29.25-88.9,78.39-59.91,175.43-58.17,259.79-10.94-62.2-9.9-112.9-16.09-173.16,1.15Z"/>
    <path fill="#2E4A7A" d="M326.45,179.13c-.97,13.83-3.57,27.34-2.73,39.78l4.66,68.98c-43.22-79-38.65-175.11,26.93-237.87,17.29-16.55,35.34-30.84,59.9-33.06,10.87-.98,22.83.65,29.1,8.6,5.81,7.38,11.69,20.71,3.49,30.1-24.82,28.44-105.07,3.88-121.35,123.47Z"/>
  </g>
</svg>
