<?xml version="1.0" encoding="UTF-8"?>
<svg id="Layer_2" data-name="Layer 2" xmlns="http://www.w3.org/2000/svg" viewBox="0 0 451.84 421.65">
  <defs>
    <style>
      .cls-1 {
        fill: #fff;
      }
    </style>
  </defs>
  <g id="Layer_1-2" data-name="Layer 1">
    <g id="uST3an.tif">
      <g>
        <path class="cls-1" d="M270.62,258.43c-33.06-85.06-13.33-172.95,47.23-235.36-31.07-18.6-68.16-20.89-99.11-3.66-27.53,16.06-39.57,44.53-32.93,77.68-22.51-26.34-39.6-52.25-66.24-72.84C91.75,2.76,50.37-7.7,17.97,6.51,1.02,33.62,8.42,72.17,26.52,98.26c20.1,28.97,49.75,45.48,76.71,70.46-20.59-2.05-37.27-4.36-54.68,3.26C2.79,191.98-12.44,247.66,14.16,290.17c75.63-55.13,169.2-67.25,256.47-31.74ZM326.45,179.13c16.28-119.59,96.53-95.03,121.35-123.47,8.2-9.4,2.33-22.72-3.49-30.1-6.27-7.96-18.23-9.58-29.1-8.6-24.56,2.22-42.61,16.51-59.9,33.06-65.59,62.76-70.15,158.87-26.93,237.87l-4.66-68.98c-.84-12.44,1.76-25.95,2.73-39.78ZM127.98,317.72c60.26-17.24,110.96-11.05,173.16-1.15-84.35-47.23-181.4-48.97-259.79,10.94-30.79,23.53-57.84,69.64-29.25,88.9,8.44,5.68,25.58,8.5,33.49-.87,23.7-28.07,18.69-74.22,82.38-97.82Z"/>
        <path d="M270.62,258.43c-87.26-35.51-180.84-23.38-256.47,31.74-26.6-42.51-11.37-98.19,34.39-118.19,17.41-7.61,34.1-5.3,54.68-3.26-26.97-24.98-56.61-41.49-76.71-70.46C8.42,72.17,1.02,33.62,17.97,6.51,50.37-7.7,91.75,2.76,119.57,24.25c26.64,20.58,43.74,46.5,66.24,72.84-6.64-33.15,5.4-61.62,32.93-77.68,30.95-17.23,68.05-14.94,99.11,3.66-60.56,62.41-80.29,150.3-47.23,235.36Z"/>
        <path d="M127.98,317.72c-63.69,23.6-58.68,69.75-82.38,97.82-7.91,9.37-25.06,6.56-33.49.87-28.59-19.26-1.54-65.37,29.25-88.9,78.39-59.91,175.43-58.17,259.79-10.94-62.2-9.9-112.9-16.09-173.16,1.15Z"/>
        <path d="M326.45,179.13c-.97,13.83-3.57,27.34-2.73,39.78l4.66,68.98c-43.22-79-38.65-175.11,26.93-237.87,17.29-16.55,35.34-30.84,59.9-33.06,10.87-.98,22.83.65,29.1,8.6,5.81,7.38,11.69,20.71,3.49,30.1-24.82,28.44-105.07,3.88-121.35,123.47Z"/>
      </g>
    </g>
  </g>
</svg>